PathFileType	4	(X/Y/Z)	SUBJ24_2_walk_RCNL2025.trc
DataRate	CameraRate	NumFrames	NumMarkers	Units	OrigDataRate	OrigDataStartFrame	OrigNumFrames
100	100	10	25	mm	100	250	399
Frame#	Time	R_Shoulder			L_Shoulder			C7			J_Notch			R_Elbow			L_Elbow			R_Wrist			L_Wrist			R_Asis			L_Asis			Sacral			Thoracic			Sternum			R_Thigh_Lateral			R_Knee_Lateral			R_Shank_Lateral			R_Ankle_Lateral			R_Heel			R_Toe			L_Thigh_Lateral			L_Knee_Lateral			L_Shank_Lateral			L_Ankle_Lateral			L_Heel			L_Toe		
		X1	Y1	Z1	X2	Y2	Z2	X3	Y3	Z3	X4	Y4	Z4	X5	Y5	Z5	X6	Y6	Z6	X7	Y7	Z7	X8	Y8	Z8	X9	Y9	Z9	X10	Y10	Z10	X11	Y11	Z11	X12	Y12	Z12	X13	Y13	Z13	X14	Y14	Z14	X15	Y15	Z15	X16	Y16	Z16	X17	Y17	Z17	X18	Y18	Z18	X19	Y19	Z19	X20	Y20	Z20	X21	Y21	Z21	X22	Y22	Z22	X23	Y23	Z23	X24	Y24	Z24	X25	Y25	Z25
250	2.49000000	-415.643616	1294.940430	333.723236	-446.921936	1300.939697	-10.774902	-517.088989	1360.547729	169.231995	-380.901337	1272.956543	158.277084	-399.596619	1014.202332	432.148834	-534.755066	1015.087524	-80.160469	-243.868469	836.931458	397.445358	-528.794067	780.112122	-78.282845	-405.916748	852.130554	331.308929	-388.524994	863.130554	3.871403	-572.524963	900.080688	169.798325	-575.553162	1093.015625	170.155197	-302.474487	1055.926514	153.421722	-544.031128	557.959778	357.110382	-513.124878	414.463959	288.714691	-621.252258	312.594513	332.436707	-790.489075	150.055267	255.359924	-833.684814	168.523972	195.247513	-726.892761	38.280777	237.716873	-345.595947	559.376465	-9.738704	-287.071655	443.790649	51.875286	-278.578461	287.265289	4.715444	-271.622070	63.000389	75.500786	-317.634033	37.483574	133.120773	-151.580688	45.753849	104.160492
251	2.50000000	-402.758759	1297.318970	332.604156	-434.879761	1302.444702	-11.595434	-504.925446	1362.348267	168.350540	-368.718964	1274.893799	157.145233	-389.493988	1016.062866	430.998047	-518.466614	1015.510315	-81.024338	-238.119759	834.894653	397.833282	-508.408676	780.751465	-79.822817	-392.690186	852.673218	329.626404	-377.165283	865.894897	2.640134	-560.361633	901.684753	169.952057	-563.126038	1094.664062	170.168182	-290.160522	1057.813965	152.406128	-524.985718	556.161560	357.340118	-490.808807	413.761444	290.345764	-602.049133	315.924774	333.961548	-775.635315	158.451233	256.535309	-815.965637	180.319534	195.667816	-721.558655	40.655018	238.201202	-335.824127	561.053650	-10.873685	-279.503174	444.283630	51.072300	-273.938812	287.326477	4.325928	-271.124725	63.145889	75.585709	-317.479370	37.722450	133.128616	-151.339493	45.565502	104.166054
252	2.51000000	-390.138245	1299.821289	331.637238	-423.020386	1304.174805	-12.260025	-492.948334	1364.267456	167.608826	-356.708527	1276.947144	156.192001	-379.446045	1018.073792	429.906860	-502.156921	1016.196533	-81.922714	-232.820122	832.885468	398.243332	-487.412415	781.753448	-81.380167	-379.745178	853.490784	328.010193	-366.105713	868.551758	1.395123	-548.438721	903.481995	169.920700	-550.902283	1096.471802	170.193054	-278.139191	1059.799683	151.501816	-505.525482	554.571106	357.654449	-467.784973	413.432098	291.937531	-581.696960	319.439240	335.395844	-759.100098	166.876160	257.426300	-796.678040	191.737473	195.853424	-714.059570	44.135830	238.962845	-327.336273	562.440491	-11.897986	-273.262604	444.524017	50.215271	-270.281189	287.260559	3.958503	-270.815094	63.272568	75.660774	-317.414185	37.873787	133.152451	-151.230270	45.547554	104.149887
253	2.52000000	-377.814972	1302.372314	330.855682	-411.318848	1306.077148	-12.766990	-481.150696	1366.277100	167.000931	-344.867462	1279.083008	155.427765	-369.488068	1020.158508	428.903717	-485.860443	1017.120605	-82.876045	-227.916702	830.926300	398.682892	-465.875076	783.113831	-82.927988	-367.093567	854.612000	326.542755	-355.307861	871.023132	0.167147	-536.739441	905.456848	169.695816	-538.907166	1098.421143	170.168243	-266.367706	1061.862671	150.736313	-485.809265	553.366333	358.027985	-444.244293	413.574310	293.472534	-560.313965	323.065735	336.701996	-740.986328	175.150620	258.003723	-776.168823	202.385818	195.803818	-703.798218	48.682686	240.025940	-319.980896	563.551941	-12.781751	-268.102753	444.595703	49.348236	-267.342072	287.123993	3.603918	-270.631378	63.369049	75.723053	-317.415192	37.962082	133.183273	-151.211029	45.611137	104.118813
254	2.53000000	-365.797424	1304.908325	330.282471	-399.745392	1308.107178	-13.120682	-469.513977	1368.355347	166.523392	-333.185272	1281.273804	154.850937	-359.658295	1022.252319	428.008270	-469.600189	1018.264221	-83.901604	-223.355209	829.042023	399.161880	-443.878311	784.833130	-84.443680	-354.727875	856.066345	325.278015	-344.734497	873.264709	-1.010339	-525.241028	907.584961	169.302887	-527.133606	1100.486816	170.057129	-254.798218	1063.987427	150.127441	-465.963104	552.716003	358.441101	-420.362061	414.260895	294.931519	-538.042175	326.737762	337.833069	-721.417419	183.058456	258.256470	-754.771729	211.869110	195.507858	-690.281677	54.086571	241.386978	-313.471649	564.464111	-13.522715	-263.723938	444.584778	48.520775	-264.905212	286.959595	3.255155	-270.528412	63.431908	75.772232	-317.459229	38.006275	133.212509	-151.250427	45.700665	104.077217
255	2.54000000	-354.071594	1307.379761	329.924377	-388.273193	1310.232788	-13.332338	-458.012695	1370.484497	166.174850	-321.645508	1283.497559	154.449860	-349.991211	1024.308838	427.233582	-453.393890	1019.618530	-85.010696	-219.080475	827.259979	399.691116	-421.505814	786.919678	-85.909653	-342.628754	857.868103	324.240265	-334.345764	875.264954	-2.106773	-513.916992	909.835266	168.790710	-515.550720	1102.635498	169.844299	-243.387909	1066.158569	149.680115	-446.072906	552.738953	358.880524	-396.286591	415.523560	296.294739	-515.057007	330.409271	338.739716	-700.510254	190.343994	258.201843	-732.739197	219.845215	194.972382	-673.229736	59.993572	243.006516	-307.511566	565.284607	-14.147635	-259.868042	444.556549	47.775883	-262.827118	286.793610	2.914658	-270.479584	63.461514	75.810333	-317.524567	38.018032	133.232620	-151.325912	45.785843	104.029205
256	2.55000000	-342.607269	1309.752930	329.770050	-376.881073	1312.435669	-13.418945	-446.618378	1372.646973	165.953903	-310.228912	1285.734009	154.205032	-340.514404	1026.300659	426.588593	-437.254211	1021.180359	-86.205460	-215.035507	825.609863	400.281036	-398.834412	789.389648	-87.311766	-330.771606	860.006165	323.431244	-324.103699	877.040771	-3.099945	-502.740967	912.172791	168.218887	-504.125702	1104.834229	169.530518	-232.104340	1068.357544	149.386536	-426.188354	553.462708	359.337219	-372.137146	417.349487	297.542908	-491.546234	334.049927	339.388885	-678.353821	196.726944	257.893982	-710.186401	226.074478	194.240311	-652.657837	65.958939	244.815903	-301.844910	566.118469	-14.698228	-256.374512	444.546387	47.141029	-261.030182	286.641937	2.595217	-270.473206	63.460796	75.840584	-317.592163	38.002033	133.237961	-151.422180	45.853596	103.979355
257	2.56000000	-331.365143	1312.007324	329.792572	-365.553131	1314.708618	-13.401722	-435.302032	1374.823242	165.855362	-298.915009	1287.963013	154.091614	-331.248901	1028.216431	426.078125	-421.186066	1022.945435	-87.479088	-211.163277	824.121490	400.939178	-375.931335	792.263824	-88.637222	-319.127747	862.441406	322.839233	-313.983643	878.627686	-3.975990	-491.690826	914.559387	167.646912	-492.830475	1107.052979	169.130051	-220.925888	1070.562622	149.228088	-406.332794	554.808655	359.804169	-348.009857	419.690521	298.656311	-467.662537	337.613007	339.782379	-655.014587	201.933426	257.419586	-687.091248	230.435532	193.385590	-628.873169	71.522255	246.739075	-296.276337	567.036011	-15.208202	-253.180588	444.564392	46.626488	-259.472412	286.517212	2.314575	-270.503784	63.438038	75.865967	-317.648529	37.959976	133.226379	-151.529617	45.901257	103.932091
258	2.57000000	-320.303101	1314.130981	329.953949	-354.277496	1317.049194	-13.305140	-424.036957	1376.991211	165.867203	-287.681671	1290.162476	154.082016	-322.208221	1030.054565	425.701477	-405.189423	1024.904541	-88.820938	-207.413200	822.819733	401.667267	-352.858459	795.561951	-89.874144	-307.660095	865.108704	322.443573	-303.977325	880.067017	-4.725731	-480.749329	916.952087	167.127319	-481.636414	1109.259399	168.656586	-209.840164	1072.748901	149.177658	-386.515503	556.617065	360.274933	-323.985748	422.476959	299.616608	-443.489136	341.004150	339.963745	-630.562378	205.734283	256.878082	-663.361511	232.903656	192.494522	-602.365601	76.283165	248.703873	-290.694489	568.057983	-15.688809	-250.275040	444.606506	46.230537	-258.118622	286.428070	2.088237	-270.562958	63.408279	75.889832	-317.689026	37.895721	133.200607	-151.642548	45.931572	103.890892
259	2.58000000	-309.380310	1316.113892	330.210266	-343.043610	1319.451050	-13.154621	-412.801636	1379.125366	165.969894	-276.505859	1292.308350	154.149002	-313.398010	1031.816528	425.453094	-389.267517	1027.042480	-90.222816	-203.745979	821.716827	402.459656	-329.677551	799.295868	-91.012222	-296.319031	867.922913	322.214172	-294.080444	881.398071	-5.342143	-469.900238	919.303223	166.704376	-470.515747	1111.417236	168.115143	-198.842194	1074.887573	149.201675	-366.747559	558.700195	360.742950	-300.136780	425.628204	300.413757	-419.052155	344.080994	340.008789	-605.085693	207.978546	256.357635	-638.917419	233.512558	191.650894	-573.649597	79.956261	250.635483	-285.087708	569.157654	-16.128550	-247.642075	444.665619	45.945889	-256.929626	286.375732	1.924410	-270.638947	63.386749	75.917320	-317.718872	37.817757	133.168869	-151.757523	45.949337	103.857635
